<?xml version="1.0" standalone="no"?>
<!DOCTYPE svg PUBLIC "-//W3C//DTD SVG 1.1//EN" "http://www.w3.org/Graphics/SVG/1.1/DTD/svg11.dtd" >
<svg xmlns="http://www.w3.org/2000/svg" xmlns:xlink="http://www.w3.org/1999/xlink" version="1.1">
<metadata>
Created by FontForge 20170731 at Fri Jun 29 18:50:06 2018
 By Aleksey,,,
Copyright (c) 2018 unbranded designs studio
</metadata>
<defs>
<font id="Frosty-Regular" horiz-adv-x="528" >
  <font-face 
    font-family="Frosty"
    font-weight="400"
    font-stretch="normal"
    units-per-em="1000"
    panose-1="0 0 5 0 0 0 0 0 0 0"
    ascent="800"
    descent="-200"
    x-height="502"
    cap-height="708"
    bbox="-130 -222 926 759"
    underline-thickness="50"
    underline-position="-150"
    unicode-range="U+0020-007D"
  />
<missing-glyph horiz-adv-x="510" 
 />
    <glyph glyph-name=".notdef" horiz-adv-x="510" 
 />
    <glyph glyph-name=".null" horiz-adv-x="0" 
 />
    <glyph glyph-name="nonmarkingreturn" horiz-adv-x="333" 
 />
    <glyph glyph-name="space" unicode=" " horiz-adv-x="263" 
 />
    <glyph glyph-name="exclam" unicode="!" horiz-adv-x="209" 
d="M132 148.5q12 -12.5 12 -43.5q0 -38 -3 -55q-4 -16 -16 -21t-43 -5q-32 0 -50 5q-15 5 -20 18.5t-5 46.5q0 32 7 46t23 18q15 3 50 3q33 0 45 -12.5zM120 293q-19 -4 -45 -4q-50 0 -55 11q-5 8 -6.5 15t-1.5 26v317q0 25 1 28q2 7 6 13q7 13 57 13t56 -11q5 -7 6 -15
q1 -5 1 -29v-317q0 -24 -1 -26q-1 -3 -2 -5.5t-2 -4.5l-4 -7z" />
    <glyph glyph-name="quotedbl" unicode="&#x22;" horiz-adv-x="386" 
d="M11 682q4 15 13.5 20.5t30.5 5.5q27 0 42 -5q12 -7 13 -17q5 -32 5 -66q0 -36 -9.5 -86t-23.5 -91q-13 -37 -21 -37t-22 38q-14 42 -23 95t-9 96q0 35 4 47zM233 683q5 17 13.5 21t36.5 4q38 0 45 -15v-1q8 -24 8 -72q0 -36 -9.5 -86t-23.5 -91q-13 -37 -21 -37t-22 38
q-14 42 -23 95t-9 96q0 26 5 48z" />
    <glyph glyph-name="numbersign" unicode="#" horiz-adv-x="716" 
d="M21 265h1q5 8 10 9q2 1 26 1h86l26 160h-95q-15 0 -18 1l-9 1q-1 1 -1 14q0 38 14 55h1q5 8 10 9q2 1 26 1h86l23 138l1 7q2 14 6 30l4 4l9 6q8 5 37 5q27 0 34 -3q7 -4 7 -14l-1 -8l-4 -23l-24 -142h200l23 138l1 7q2 13 6 30l4 4l9 6q8 5 37 5q27 0 34 -3q7 -4 7 -14
l-1 -8l-4 -23l-24 -142h81h19q5 -1 6.5 -3.5t1.5 -9.5q0 -41 -14 -58q-5 -7 -9 -8q-8 -2 -27 -2h-71l-26 -160h80h19q5 -1 6.5 -3.5t1.5 -9.5q0 -36 -10 -56q-4 -7 -12 -10q-7 -3 -28 -3h-71l-13 -77l-3 -21l-2 -11q-2 -14 -4.5 -24.5t-7.5 -18.5q-12 -12 -54 -12
q-32 0 -33 10v2l4 23q0 5 4 25l16 104h-199l-13 -77l-3 -21l-2 -11q-2 -14 -4.5 -24.5t-7.5 -18.5q-12 -12 -54 -12q-32 0 -33 10v2l4 23q0 5 4 25l16 104h-95q-14 0 -17 1l-10 1v5q-1 1 -1 10q0 38 14 55zM462 435h-198l-28 -160h200z" />
    <glyph glyph-name="dollar" unicode="$" horiz-adv-x="432" 
d="M27 214.5q20 18.5 32 18.5t44 -32q37 -46 88 -46q47 0 73 22.5t26 63.5q0 29 -26 47q-27 18 -89 33q-55 13 -85 28.5t-49 42.5q-23 32 -23 84q0 59 40 100.5t103 48.5v77q0 16 2 34q2 9 8 11.5t24 2.5q27 0 31 -15l2 -34v-78q18 0 47.5 -10.5t44.5 -21.5l9 -8l4 -3
l11 -11l5 -8q0 -12 -20 -36t-30 -24q-12 0 -26 12l-8 6l-15 12q-26 15 -57 15q-38 0 -61.5 -20t-23.5 -52q0 -30 25 -50.5t67 -27.5q76 -14 125 -38q26 -12 41.5 -42.5t15.5 -72.5q0 -66 -41 -111t-113 -55v-85q0 -31 -4 -39v1q-2 -6 -8 -8q-10 -2 -22 -2t-20 2q-6 1 -8 6
q-5 15 -5 41v84q-29 1 -68 20t-57 40l-13 17q-16 19 -16 32q0 10 20 28.5z" />
    <glyph glyph-name="percent" unicode="%" horiz-adv-x="780" 
d="M45.5 668q38.5 43 106.5 43t105 -42t37 -121q0 -77 -36 -118.5t-104 -41.5t-107.5 43t-39.5 118q0 76 38.5 119zM86.5 481.5q21.5 -23.5 63.5 -23.5q40 0 62.5 24t22.5 68q0 91 -84 91q-86 0 -86 -91q0 -45 21.5 -68.5zM610 758l-397 -752h-65l398 753zM466.5 304.5
q38.5 42.5 107.5 42.5q68 0 104.5 -42t36.5 -121q0 -78 -36 -119.5t-104 -41.5t-107.5 43.5t-39.5 118.5q0 77 38.5 119.5zM571 93q41 0 63.5 24.5t22.5 68.5q0 91 -85 91t-85 -92t84 -92z" />
    <glyph glyph-name="ampersand" unicode="&#x26;" horiz-adv-x="705" 
d="M128 405q-46 91 -46 168q0 84 49.5 127.5t146.5 43.5q88 0 134 -39.5t46 -114.5q0 -36 -17 -66.5t-56 -64.5q-44 -37 -113 -82q77 -107 170 -173q44 57 57 117q6 25 66 25q28 0 40 -6q1 -1 3 -1l2 -1q3 -1 3 -7q0 -92 -82 -177l26 -7q21 -7 47 -7q29 0 41 -12.5t12 -41.5
q0 -32 -4 -41q-4 -12 -14.5 -16.5t-35.5 -4.5q-87 0 -172 49q-95 -56 -192 -56q-118 0 -175 46.5t-57 142.5q0 108 121 199zM162.5 139q29.5 -24 83.5 -24q41 0 66 9l28 11q-82 64 -156 172q-24 -20 -37.5 -46.5t-13.5 -52.5q0 -45 29.5 -69zM220 467q71 45 99 68
q32 27 32 57q0 32 -19.5 50.5t-54.5 18.5q-41 0 -64 -20t-23 -56q0 -49 30 -118z" />
    <glyph glyph-name="quotesingle" unicode="'" horiz-adv-x="165" 
d="M105.5 534q-9.5 -50 -23.5 -91q-13 -37 -21 -37t-22 38q-14 42 -23 95t-9 96q0 35 4 47q4 15 13.5 20.5t30.5 5.5q27 0 42 -5q12 -7 13 -17q5 -32 5 -66q0 -36 -9.5 -86z" />
    <glyph glyph-name="parenleft" unicode="(" horiz-adv-x="336" 
d="M199.5 -96.5q27.5 -27.5 55.5 -27.5q25 0 35 -5q6 -5 6 -35q0 -20 -5 -28q-6 -8 -11 -9.5t-24 -1.5q-56 0 -105.5 41t-80.5 114q-63 150 -63 320q0 169 60 318q31 77 80.5 118.5t109.5 41.5q13 0 27 -2q7 -3 10 -11q2 -14 2 -27q0 -25 -1 -28q-2 -8 -8 -9q-14 -2 -25 -2
h-6q-45 0 -82 -62t-54 -165q-13 -66 -13 -171q0 -87 12 -165t33 -128q20 -49 47.5 -76.5z" />
    <glyph glyph-name="parenright" unicode=")" horiz-adv-x="351" 
d="M28 -125q9 1 20 1q29 0 56.5 27.5t47.5 76.5q44 108 44 294q0 87 -12.5 165.5t-33.5 127.5q-48 104 -103 104h-6q-14 0 -24 2q-6 1 -8 9q-2 14 -2 26q0 22 3 29q2 8 10 11q14 2 26 2q59 0 109 -41.5t81 -117.5q60 -150 60 -319q0 -170 -63 -320q-31 -73 -80.5 -114
t-105.5 -41q-25 0 -32.5 6t-7.5 24t2 32q2 11 5 12q5 3 14 4z" />
    <glyph glyph-name="asterisk" unicode="*" horiz-adv-x="470" 
d="M14 570q7 21 16 34q9 12 17 12h7l109 -34v86q0 27 4 35q4 10 13 12q15 4 39 4q28 0 41 -5q11 -5 13 -14q2 -14 2 -37v-81q110 35 116 35q8 0 17 -11q8 -11 15 -34t7 -36q0 -8 -5 -15t-12 -10q-16 -7 -30 -12l-75 -23l42 -59l22 -30q6 -10 6 -16q0 -13 -28 -36.5
t-42 -23.5q-10 0 -18 6q-5 3 -22 25l-49 67q-51 -71 -63 -85q-13 -15 -18 -15q-11 0 -30 11.5t-34 26.5t-15 23q0 7 13 26q5 9 57 80q-30 10 -68 20l-36 12q-7 3 -12.5 10.5t-5.5 16.5q0 14 7 35z" />
    <glyph glyph-name="plus" unicode="+" horiz-adv-x="484" 
d="M275 328h106q25 0 36 -3q10 -4 13 -13q4 -11 4 -38q0 -28 -5 -40q-5 -11 -11.5 -12.5t-31.5 -1.5h-111v-106q0 -27 -4 -35q-4 -11 -13 -13q-17 -5 -37 -5q-46 0 -48 12q-6 15 -6 42v105h-112q-26 0 -33 4q-9 3 -11 12q-4 9 -4 38q0 26 5 39q5 12 15 13q14 2 35 2h105v106
q0 28 4 36q3 10 12 13q11 4 38 4q22 0 35 -3q12 -5 13 -9q6 -15 6 -42v-105z" />
    <glyph glyph-name="comma" unicode="," horiz-adv-x="194" 
d="M123.5 155.5q12.5 -5.5 16.5 -19.5q4 -12 4 -45q0 -19 -3 -36q0 -62 -90 -132q-34 -25 -34 -24l1 10q2 7 0 6q8 2 20 11q16 12 26 33t10 43q0 12 -3 22q-37 1 -50.5 11.5t-13.5 39.5q0 47 4 60q4 16 20 21q18 5 55 5q25 0 37.5 -5.5z" />
    <glyph glyph-name="hyphen" unicode="-" horiz-adv-x="390" 
d="M54 164q-30 0 -38.5 9.5t-8.5 28.5q0 37 3 50q3 11 13 15.5t32 4.5h238q39 0 45 -19q2 -18 2 -31q0 -28 -3 -39q-3 -12 -12 -15.5t-33 -3.5h-238z" />
    <glyph glyph-name="period" unicode="." horiz-adv-x="194" 
d="M140 50q-4 -15 -17 -20.5t-41 -5.5q-32 0 -50 5q-15 4 -20 18q-5 17 -5 47q0 29 4.5 42.5t16.5 19.5q17 5 41 5q32 0 50 -5q15 -5 20 -18t5 -43q0 -33 -4 -45z" />
    <glyph glyph-name="slash" unicode="/" horiz-adv-x="495" 
d="M122 3q-5 -12 -9 -19t-10 -12q-5 -3 -13 -3q-12 0 -40.5 13t-35.5 22l-4 3q-3 2 -3 5q0 5 23 57q11 25 56 119l11 23q15 31 28 58l216 454q8 16 14 24q6 9 8 9l13 1q18 0 48.5 -18.5t30.5 -29.5q0 -8 -12 -40z" />
    <glyph glyph-name="zero" unicode="0" horiz-adv-x="558" 
d="M43.5 517q18.5 70 52.5 117q29 40 77.5 62.5t105.5 22.5t104.5 -22t77.5 -62v1q29 -45 43 -88q29 -90 29 -183q0 -172 -73 -272q-28 -39 -75.5 -60.5t-104.5 -21.5t-105 21.5t-77 60.5q-28 34 -45 86q-28 78 -28 187q0 81 18.5 151zM183.5 196.5q31.5 -57.5 94.5 -57.5
q64 0 96 56t32 165v6q0 111 -32 168.5t-95 57.5t-95 -57.5t-32 -168.5q0 -112 31.5 -169.5z" />
    <glyph glyph-name="one" unicode="1" horiz-adv-x="382" 
d="M53 539l79 73l70 64q29 25 37 28q13 5 21 5q30 0 47 -5q13 -5 17 -17q3 -13 3 -44v-557q0 -30 -4 -42t-17 -16q-17 -5 -43 -5t-43 5q-13 4 -16 18q-4 9 -4 42v414q-65 -59 -78 -67q-14 -8 -30 -8q-11 0 -27 12.5t-28 30.5q-12 17 -12 29q0 16 28 40z" />
    <glyph glyph-name="two" unicode="2" horiz-adv-x="569" 
d="M258 182q-21 -13 -21 -21q0 -6 18 -8q17 -3 55 -3l101 1h70q31 0 42 -4q12 -4 17 -17q4 -11 4 -43q0 -29 -4.5 -41.5t-17.5 -17.5q-17 -5 -43 -5h-391q-25 0 -44 19.5t-19 45.5q0 41 30 81.5t86 75.5l106 63q68 41 104 86.5t36 91.5q0 47 -34 76t-85 29q-42 0 -72 -22.5
t-39 -61.5l-5 -39q0 -30 -4 -38q-4 -12 -16 -15q-11 -4 -44 -4q-61 0 -61 29l-2 35q0 67 32.5 123t89.5 89q56 32 123 32q66 0 123 -33t90 -90q32 -59 32 -126q0 -47 -21 -94t-56 -77q-32 -29 -56 -46t-59 -35q-48 -23 -65 -36z" />
    <glyph glyph-name="three" unicode="3" horiz-adv-x="558" 
d="M98 251q22 0 31.5 -2.5t15.5 -10.5l12 -31q10 -33 43 -52.5t78 -19.5q57 0 92.5 26t35.5 69q0 37 -32 65t-75 28q-37 0 -48 4q-15 3 -20.5 16t-5.5 44q0 61 28 61l36 2q48 0 74.5 16.5t26.5 47.5q0 35 -29.5 59.5t-70.5 24.5q-43 0 -68.5 -14.5t-43.5 -48.5
q-15 -35 -43 -35q-17 0 -36 9.5t-31 24.5q-13 13 -13 26q0 24 24 60.5t53 58.5q25 18 64.5 29t80.5 11q67 0 122 -26t87 -73q31 -46 31 -103q0 -41 -22 -78.5t-56 -55.5q26 -6 48 -30.5t34 -58.5q12 -33 12 -61q0 -62 -33 -112.5t-91 -79.5q-61 -29 -132 -29q-113 0 -183 64
q-30 26 -49.5 67t-19.5 75q0 33 73 33z" />
    <glyph glyph-name="four" unicode="4" horiz-adv-x="537" 
d="M27 327l83 335q11 34 16 42q6 8 23 8q18 0 43 -7t37 -16q11 -9 11 -25q0 -6 -5 -31l-1 -2l-70 -279h220v298q0 28 4.5 39.5t17.5 15.5q11 4 43 4q26 0 43 -5q11 -4 16 -17q4 -11 4 -42v-556q0 -31 -4 -42q-4 -13 -16 -16q-22 -5 -42 -5q-27 0 -44 5q-13 5 -17.5 17.5
t-4.5 41.5v147h-296q-27 0 -40 5t-18 17q-5 13 -5 34q0 10 2 34z" />
    <glyph glyph-name="five" unicode="5" horiz-adv-x="490" 
d="M293 709h94q31 0 43 -4t16 -17q4 -11 4 -45q0 -31 -4 -40q-4 -12 -15 -15.5t-38 -3.5h-200l-13 -130q38 6 63 6q57 0 109 -30.5t83 -81.5q30 -51 30 -109q0 -63 -30 -115t-82 -82q-52 -31 -114 -31q-85 0 -155 43l-14 10l-15 14q-30 26 -30 41q0 11 12.5 28t30.5 32
q16 13 27 13q19 0 50 -25q25 -28 80 -28q53 0 82.5 25.5t29.5 71.5q0 41 -29.5 69t-72.5 28q-38 0 -65 -24q-20 -17 -37 -17q-12 0 -33 9.5t-37 21.5q-16 10 -16 18q0 19 13 136l18 176q1 5 6.5 17t10.5 19q7 10 19 15.5t27 5.5z" />
    <glyph glyph-name="six" unicode="6" horiz-adv-x="510" 
d="M456 119.5q-29 -48.5 -80 -76.5q-49 -28 -113 -28q-113 0 -175.5 72t-62.5 202q0 123 47 219t134 150q86 53 197 53h6q27 0 38 -4.5t15 -16.5q4 -11 4 -43q0 -28 -5 -45q-6 -14 -19 -15q-13 -3 -47 -3q-91 0 -149 -49.5t-79 -144.5l104 25q19 3 37 3q54 0 95 -26.5
t62 -73.5q20 -46 20 -91q0 -59 -29 -107.5zM334.5 153q26.5 24 26.5 68q0 39 -27.5 63.5t-71.5 24.5t-74.5 -23.5t-30.5 -57.5q0 -23 3.5 -37t13.5 -28q24 -34 85 -34q49 0 75.5 24z" />
    <glyph glyph-name="seven" unicode="7" horiz-adv-x="531" 
d="M28.5 684.5q3.5 11.5 15.5 17.5q15 5 39 5h360q28 0 45 -5q13 -6 16 -18q2 -24 2 -46q0 -32 -22.5 -86.5t-61.5 -117.5l-74 -117q-92 -146 -92 -243q0 -26 -4.5 -35.5t-15.5 -10.5q-12 -3 -44 -3q-33 0 -45 3t-15 13q-3 9 -3 35q0 55 19.5 121t52.5 122q22 40 72 114
q37 53 62 96q21 36 21 51h-268q-28 0 -40.5 5t-17.5 18q-5 17 -5 41q0 29 3.5 40.5z" />
    <glyph glyph-name="eight" unicode="8" horiz-adv-x="532" 
d="M476 116.5q-31 -51.5 -87 -78.5q-55 -27 -123 -27q-70 0 -124.5 26.5t-84.5 77.5q-32 53 -32 120q0 38 18 71.5t56 67.5l22 17q-71 71 -71 152q0 49 27 90t77 66q49 24 114 24q63 0 111.5 -23.5t75.5 -65.5q26 -41 26 -90q0 -39 -17.5 -79t-50.5 -76q50 -37 72 -73
t22 -81q0 -67 -31 -118.5zM331.5 583q-26.5 23 -65.5 23q-40 0 -65.5 -22t-25.5 -57t26.5 -58.5t66.5 -23.5q38 0 64 23.5t26 57.5t-26.5 57zM267 130q49 0 81 28.5t32 72.5q0 43 -32.5 71.5t-80.5 28.5q-49 0 -82 -28.5t-33 -71.5q0 -37 30 -69q29 -32 85 -32z" />
    <glyph glyph-name="nine" unicode="9" horiz-adv-x="510" 
d="M54.5 615.5q29.5 48.5 80.5 76.5q49 28 112 28q113 0 175.5 -72t62.5 -202q0 -124 -47 -219.5t-133 -149.5q-86 -53 -198 -53h-6q-27 0 -38 4.5t-15 16.5q-4 11 -4 43t6 45q4 13 18 16q24 2 47 2q93 0 148 45.5t76 138.5l-100 -15q-19 -3 -37 -3q-54 0 -95 26.5t-62 73.5
q-20 46 -20 91q0 59 29.5 107.5zM175.5 582q-26.5 -24 -26.5 -68q0 -39 27.5 -63.5t71.5 -24.5t74.5 23.5t30.5 57.5q0 23 -3.5 37t-13.5 28q-22 34 -85 34q-49 0 -75.5 -24z" />
    <glyph glyph-name="colon" unicode=":" horiz-adv-x="188" 
d="M30.5 137.5q5.5 13.5 20.5 18.5q18 5 47 5q30 0 42.5 -5t17.5 -19q5 -13 5 -43q0 -24 -2 -34t-8 -20q-7 -16 -53 -16q-32 0 -50 5q-15 5 -20 18.5t-5 46.5q0 30 5.5 43.5zM30.5 456.5q5.5 13.5 20.5 18.5q18 5 47 5q28 0 41.5 -5.5t18.5 -19.5q5 -13 5 -43q0 -23 -2 -33
t-8 -20q-7 -16 -53 -16q-32 0 -50 5q-15 5 -20 18.5t-5 46.5q0 30 5.5 43.5z" />
    <glyph glyph-name="semicolon" unicode=";" horiz-adv-x="193" 
d="M25 -135h9v0l-2 13l1 16q7 2 19 11q18 13 32 44t14 55q0 12 -3 19q-28 2 -42 7q-12 4 -17 17q-5 17 -5 43v4q0 24 1.5 32t6.5 18v1q7 16 54 16q49 0 66 -14h-1q10 -7 10 -52v-4q0 -56 -18.5 -106.5t-49.5 -83.5q-31 -32 -66 -36h-9zM31 413q0 23 1.5 31t6.5 20
q7 16 54 16q42 0 58 -9q17 -3 17 -57v-4q0 -24 -1.5 -32t-7.5 -19q-7 -16 -53 -16q-31 0 -49 5q-15 4 -20.5 17t-5.5 44v4z" />
    <glyph glyph-name="less" unicode="&#x3c;" horiz-adv-x="597" 
d="M557.5 66.5q-14.5 -23.5 -25.5 -33.5q-8 -5 -15 -5q-14 0 -37 14h-1l-436 260q-18 14 -18 42t17 42l438 261h1q24 15 40 15q11 0 30.5 -29.5t19.5 -45.5q0 -9 -7 -16q-9 -9 -30 -22l-346 -205l347 -205q28 -17 35 -28l2 -13q0 -8 -14.5 -31.5z" />
    <glyph glyph-name="equal" unicode="=" horiz-adv-x="428" 
d="M69 279q-36 0 -41 20q-2 16 -2 31q0 23 5 35q4 10 11 12t28 2h289q23 0 30 -4q9 -4 11.5 -12t2.5 -29q0 -44 -8 -49q-13 -6 -37 -6h-289zM69 67q-20 0 -29.5 4.5t-11.5 13.5q-3 9 -3 28q0 44 9 48l-1 -1q13 7 37 7h289q20 0 29.5 -4.5t11.5 -14.5q2 -16 2 -31
q0 -39 -8 -44q-13 -6 -36 -6h-289z" />
    <glyph glyph-name="greater" unicode="&#x3e;" horiz-adv-x="597" 
d="M27 111q7 11 35 28l347 205l-346 205q-19 12 -29 22q-8 8 -8 16q0 16 19.5 45.5t30.5 29.5q16 0 40 -15h1l438 -261q17 -14 17 -42t-18 -42l-436 -260h-1q-23 -14 -37 -14q-7 0 -15 5q-11 10 -25.5 33.5t-14.5 31.5z" />
    <glyph glyph-name="question" unicode="?" horiz-adv-x="472" 
d="M29 582q12 32 26.5 54t38.5 44q25 21 62 33.5t76 12.5q59 0 109 -27t80 -73q27 -43 27 -96q0 -36 -10.5 -61.5t-26.5 -39.5q-10 -10 -41 -29q-32 -19 -47 -36.5t-23 -45.5q-2 -14 -2 -51q-1 -6 -1 -25q0 -15 -3 -21.5t-15.5 -10t-39.5 -3.5q-44 0 -49 9q-4 5 -5 18
q-2 18 -2 34l1 74q-1 28 15 49t45 29q45 13 70.5 40t25.5 63q0 43 -26.5 68t-72.5 25q-44 0 -67 -15h-1q-26 -18 -32 -38l-3 -12q-7 -18 -13 -27q-6 -8 -15 -8q-25 0 -55 15.5t-30 28.5q0 14 4 22zM168 94q0 36 4 45q4 11 19 16q17 6 56 6q25 0 37.5 -5.5t16.5 -19.5
q4 -12 4 -45q0 -31 -5.5 -44.5t-21.5 -17.5q-20 -5 -52 -5q-33 0 -45.5 12t-12.5 42v16z" />
    <glyph glyph-name="at" unicode="@" horiz-adv-x="858" 
d="M77 468q52 88 143 133q87 42 183 42t171 -22.5t136 -69.5q57 -45 90 -118t33 -155q0 -93 -33.5 -160.5t-89.5 -101.5q-55 -32 -113 -32q-59 0 -94 34t-35 90l3 64q-12 -24 -40 -38t-59 -14q-36 0 -69 19t-53 53q-20 35 -20 73q0 49 22 91.5t62 69.5q41 26 95 26
q38 0 63.5 -12.5t30.5 -35.5l4 22q3 17 12 22t33 5q17 0 27 -2q6 -1 6 -11l-2 -23l-41 -312q0 -22 14.5 -34t41.5 -12q40 0 80 25h-1q22 13 41 38q41 56 41 143q0 102 -45 171t-125 102q-77 31 -173 31q-94 0 -165.5 -36.5t-110.5 -104.5q-40 -67 -40 -157q0 -144 73 -222.5
t208 -78.5h19q10 0 13 -2t4 -10q1 -4 1 -23q0 -13 -2 -27q-1 -8 -9 -10q-7 -3 -27 -3q-108 0 -188.5 45.5t-123.5 130.5q-43 82 -43 199q0 110 52 198zM308 279q0 -34 24 -57.5t59 -23.5t63 26t32 61v7q0 36 -23 59.5t-59 23.5t-64 -25.5t-32 -62.5v-8z" />
    <glyph glyph-name="A" unicode="A" horiz-adv-x="735" 
d="M40 112l270 559q7 16 23.5 26.5t34.5 10.5q39 0 57 -38l270 -558q15 -31 15 -40q0 -10 -15 -23.5t-35 -23.5q-19 -10 -36 -10q-20 0 -28 15l-16 29l-58 122h-309l-59 -122q-9 -20 -13 -26t-12 -12q-8 -5 -17 -5q-14 0 -34.5 9.5t-37.5 23.5q-15 14 -15 23t15 40zM474 279
l-107 219l-106 -219h213z" />
    <glyph glyph-name="B" unicode="B" horiz-adv-x="580" 
d="M25 646q0 31 4 42q4 12 17 17q11 4 43 4h252q53 0 97.5 -26t70.5 -71q26 -47 26 -98q0 -66 -45 -123q32 -32 48.5 -72t16.5 -83q0 -42 -15.5 -80.5t-44.5 -68.5q-61 -61 -144 -61h-263q-31 0 -45 6q-13 6 -15 18q-3 11 -3 41v555zM341 153q42 0 65 24.5t23 68.5
q0 42 -16 63t-51 25q-17 3 -38 3q-33 0 -44 4q-13 4 -13 15q0 9 10 28l11 22q7 15 16 19.5t28 4.5q33 0 51.5 11t21.5 30q3 15 3 41q0 70 -91 70h-165v-429h189z" />
    <glyph glyph-name="C" unicode="C" horiz-adv-x="629" 
d="M47.5 496.5q22.5 59.5 63.5 102.5q35 38 86 65q93 51 185 51q87 0 180 -54q11 -8 20.5 -13.5t13.5 -9.5q8 -8 8 -21q0 -12 -12 -33t-27 -36q-16 -16 -27 -16q-10 0 -36 17q-48 39 -127 39q-63 0 -117.5 -33t-83.5 -88q-22 -47 -22 -101t21.5 -100t59.5 -74h1
q67 -49 141 -49q40 0 68.5 9.5t60.5 31.5q28 16 35 16q9 0 24.5 -16.5t27.5 -37.5t12 -33q0 -10 -7 -18.5t-26 -20.5v1q-52 -32 -95 -46t-92 -14q-83 0 -155 35.5t-119 88.5q-39 44 -61.5 104t-22.5 127t22.5 126.5z" />
    <glyph glyph-name="D" unicode="D" horiz-adv-x="639" 
d="M25 646q0 31 4 42q4 12 17 17q11 4 43 4l185 -1q90 0 168.5 -45t125.5 -123q46 -76 46 -168t-46 -171.5t-125 -127.5q-80 -47 -172 -47h-183q-29 0 -42 5q-13 4 -17 17q-4 11 -4 42v556zM274 153q56 0 105 29t79 78q29 50 29 106q0 58 -28.5 107t-78.5 79q-50 29 -107 29
h-121v-428h122z" />
    <glyph glyph-name="E" unicode="E" horiz-adv-x="573" 
d="M25 645q0 28 5 41.5t18 17.5q11 4 43 4h394q31 0 42 -4q12 -4 17 -17q4 -11 4 -43q0 -31 -6 -45q-6 -13 -17 -15q-12 -3 -41 -3h-332v-151h223q31 0 42 -4q12 -4 17 -17q4 -11 4 -43q0 -31 -6 -45q-6 -13 -17 -15q-12 -3 -42 -3h-221v-151h333q31 0 42 -4q12 -4 17 -17
q4 -11 4 -43q0 -31 -6 -45q-6 -13 -17 -15q-12 -3 -41 -3h-396q-29 0 -42 5.5t-17 18.5q-4 9 -4 40v556z" />
    <glyph glyph-name="F" unicode="F" horiz-adv-x="572" 
d="M25 645q0 28 5 41.5t18 17.5q11 4 43 4h394q30 0 42 -4.5t16 -16.5q4 -11 4 -43q0 -33 -4 -42q-4 -13 -17 -17q-11 -4 -43 -4h-331v-151h222q31 0 42 -4q12 -4 17 -17q4 -11 4 -44q0 -26 -5 -43q-6 -11 -17 -16q-11 -4 -42 -4h-221v-214q0 -30 -4 -42t-17 -16
q-17 -5 -43 -5q-29 0 -42 5.5t-17 18.5q-4 9 -4 40v556z" />
    <glyph glyph-name="G" unicode="G" horiz-adv-x="649" 
d="M71.5 548.5q46.5 79.5 128.5 126.5q79 46 176 46q111 0 208 -73q17 -14 17 -24q0 -12 -12.5 -33t-28.5 -36q-16 -16 -28 -16q-11 0 -47 24q-49 31 -114 31q-60 0 -110.5 -29t-79.5 -79t-29 -110q0 -62 30 -115t82 -86q53 -32 109 -32q72 0 124 27v150h-104q-21 0 -29 3
t-9 13q-2 16 -2 33t2 33q2 9 11 12t31 3h41l99 1q49 0 62 -4q17 -4 21 -13.5t4 -42.5v-220q0 -23 -21 -44q-76 -79 -234 -79q-90 0 -169.5 48.5t-127.5 132.5q-47 83 -47 178t46.5 174.5z" />
    <glyph glyph-name="H" unicode="H" horiz-adv-x="641" 
d="M7 645q0 31 4 42q4 12 17 17q11 4 43 4q61 0 61 -28l2 -36v-229h315v230q0 24 1.5 31.5t6.5 17.5q8 14 53 14q28 0 45 -5q12 -4 17 -17q4 -11 4 -42v-555q0 -30 -4 -42t-17 -16q-17 -5 -43 -5q-31 0 -45 6q-12 6 -15 16.5t-3 41.5v228h-315v-229q0 -30 -4 -42t-17 -16
q-17 -5 -43 -5q-31 0 -45 6q-12 6 -15 16.5t-3 41.5v555z" />
    <glyph glyph-name="I" unicode="I" horiz-adv-x="199" 
d="M7 645q0 31 4 42q4 12 17 17q11 4 43 4q26 0 43 -5q11 -4 16 -17q4 -11 4 -42v-556q0 -30 -4 -42t-17 -16q-17 -5 -43 -5q-29 0 -42 5.5t-17 18.5q-4 9 -4 40v556z" />
    <glyph glyph-name="J" unicode="J" horiz-adv-x="516" 
d="M427 705q14 -4 19 -17q5 -17 5 -45v-387q0 -65 -32.5 -120.5t-89.5 -87.5q-55 -33 -123 -33q-48 0 -94 20t-77 54q-28 31 -28 47q0 10 13 27t31 32q17 14 28 14q16 0 42 -26q40 -40 90 -40q49 0 81 33.5t32 86.5v374q0 43 11.5 57t45.5 14q33 0 46 -3z" />
    <glyph glyph-name="K" unicode="K" horiz-adv-x="581" 
d="M7 645q0 31 4 42q4 12 17 17q11 4 43 4q61 0 61 -28l2 -36v-256q95 105 245 279l19 21q27 32 42 32q11 0 30.5 -13t35.5 -30q15 -17 15 -26q0 -12 -7 -22q-11 -17 -32 -38l-65 -65l-157 -158q151 -145 234 -238q27 -30 27 -45q0 -9 -14.5 -25.5t-35.5 -30.5
q-20 -14 -30 -14q-14 0 -43 33l-264 301v-261q0 -30 -4 -42t-17 -16q-17 -5 -43 -5q-29 0 -42 5.5t-17 18.5q-4 9 -4 40v556z" />
    <glyph glyph-name="L" unicode="L" horiz-adv-x="529" 
d="M7 645q0 31 4 42q4 12 17 17q11 4 43 4q33 0 44 -4q12 -5 15 -16q3 -17 4 -44v-521h297q22 0 33 -3q9 -3 12 -12q3 -10 3 -33q0 -17 -2 -33q-3 -10 -13 -13q-8 -4 -34 -4h-360q-29 0 -42 5.5t-17 18.5q-4 9 -4 40v556z" />
    <glyph glyph-name="M" unicode="M" horiz-adv-x="790" 
d="M763.5 675q1.5 -8 1.5 -32v-555q0 -27 -5.5 -40.5t-17.5 -17.5q-9 -4 -38 -4q-28 0 -45 5q-12 4 -17 17q-4 11 -4 42v410l-100 -138l-27 -36l-12 -16q-27 -37 -41.5 -55.5t-27.5 -27.5q-16 -13 -35 -13q-16 0 -29 5.5t-19 16.5l-8 10q-43 56 -79 107l-44 61l-15 20
l-50 66v-412q0 -29 -4 -40q-4 -12 -17 -17q-17 -5 -43 -5q-30 0 -42 6q-13 4 -16 17q-4 9 -4 41v555q0 27 5 42q4 12 16 16q11 4 43 4q14 0 30.5 -3.5t22.5 -7.5l6 -6l246 -323q185 247 248 324q3 8 19 12q12 4 41 4q26 0 38 -4q13 -4 17 -10q5 -10 6.5 -18z" />
    <glyph glyph-name="N" unicode="N" horiz-adv-x="640" 
d="M25 647q0 25 5 40q4 12 15 15q22 5 42 5q33 0 44.5 -5.5t30.5 -28.5l327 -440v414q0 34 7 44q4 7 16 12q9 4 38 4q27 0 44 -5q12 -4 17 -17q4 -11 4 -42v-555q0 -30 -4 -42t-17 -16q-17 -5 -43 -5q-30 0 -41 3q-10 3 -18 12l-341 447v-399q0 -30 -4 -42t-17 -16
q-17 -5 -43 -5q-25 0 -42 5q-11 4 -16 17q-4 11 -4 42v558z" />
    <glyph glyph-name="O" unicode="O" horiz-adv-x="725" 
d="M530 671q78 -46 124 -127q46 -79 46 -174q0 -98 -43.5 -179.5t-121.5 -129.5q-76 -48 -170 -48q-92 0 -170.5 46.5t-123.5 127.5q-46 79 -46 173q0 76 26.5 144t75.5 115t109 72.5t123 25.5q93 0 171 -46zM180.5 252.5q28.5 -52.5 77.5 -82.5q48 -30 105 -30
q58 0 106 29.5t76 81.5q28 49 28 113q0 62 -28 114t-77 82q-48 30 -106 30q-57 0 -105.5 -30t-76.5 -82t-28 -113q0 -60 28.5 -112.5z" />
    <glyph glyph-name="P" unicode="P" horiz-adv-x="567" 
d="M25 645q0 31 4 42q4 12 17 17q11 4 43 4h214q67 0 126.5 -37t89.5 -97q23 -52 23 -107q0 -56 -22 -104t-61 -77q-77 -59 -157 -59h-150v-138q0 -30 -4 -42t-17 -16q-17 -5 -43 -5q-31 0 -45 6q-12 6 -15 16.5t-3 41.5v555zM303 354q47 0 80 32.5t33 80.5t-33 81t-81 33
h-150v-227h151z" />
    <glyph glyph-name="Q" unicode="Q" horiz-adv-x="790" 
d="M726 143q28 -21 33 -26q6 -7 6 -14q0 -12 -11.5 -32t-28.5 -39q-17 -17 -26 -17q-8 0 -30 14t-41 27q-32 24 -52 32q-96 -75 -208 -75q-93 0 -172 46.5t-125 126.5q-46 79 -46 174q0 76 26.5 144t75.5 115t109 72.5t123 25.5q93 0 171.5 -46.5t124.5 -128.5
q45 -81 45 -178q0 -88 -44 -174zM180.5 252.5q28.5 -52.5 77.5 -82.5q48 -30 105 -30q58 0 106 29.5t76 81.5q28 49 28 113q0 62 -28 114t-77 82q-48 30 -106 30q-57 0 -105.5 -30t-76.5 -82t-28 -113q0 -60 28.5 -112.5z" />
    <glyph glyph-name="R" unicode="R" horiz-adv-x="576" 
d="M25 645q0 31 4 42q4 12 17 17q11 4 43 4h216q67 0 126 -37t89 -97q23 -52 23 -107q0 -109 -80 -180l26 -59l49 -114q13 -27 13 -42q0 -11 -14 -23.5t-36 -20.5q-21 -9 -38 -9q-18 0 -29 17q-11 21 -84 194l-198 -3v-138q0 -30 -4 -42t-17 -16q-17 -5 -43 -5q-31 0 -45 6
q-12 6 -15 16.5t-3 41.5v555zM305 354q47 0 79.5 32.5t32.5 80.5t-33 81t-81 33h-151v-227h153z" />
    <glyph glyph-name="S" unicode="S" horiz-adv-x="533" 
d="M45 119q-20 26 -20 42q0 10 13 26t30 28q16 12 28 12q7 0 24 -11q15 -10 36 -31q20 -23 50.5 -39.5t55.5 -16.5q57 0 87.5 26t30.5 75q0 32 -29 54.5t-81 31.5q-36 6 -77.5 21t-78.5 35q-35 20 -55.5 61t-20.5 93q0 55 28 99.5t78 69.5q49 25 113 25q60 0 99 -13t88 -47
q22 -21 22 -30q0 -11 -14.5 -30.5t-33.5 -35.5q-16 -16 -21 -14l-65 39q-29 17 -67 17q-44 0 -72.5 -23t-28.5 -60q0 -36 29.5 -60.5t80.5 -32.5q85 -12 159 -47q35 -16 55 -55.5t20 -93.5q0 -56 -21.5 -100t-61.5 -70q-73 -49 -159 -49q-42 0 -80 9.5t-64 26.5
q-47 29 -67 56z" />
    <glyph glyph-name="T" unicode="T" horiz-adv-x="701" 
d="M629 709q22 0 32 -3t11 -10q4 -11 4 -35q0 -16 -2 -32q-3 -9 -12 -12q-11 -3 -34 -3h-216v-528q0 -32 -4 -40q-4 -12 -16 -16q-15 -5 -42 -5q-32 0 -41 4q-12 4 -16 16q-4 9 -4 42v527h-217q-22 0 -31 3q-11 3 -12 10q-4 11 -4 35q0 23 3 32q1 9 12 12q9 3 33 3h556z" />
    <glyph glyph-name="U" unicode="U" horiz-adv-x="646" 
d="M556 709q32 0 44 -4t17 -18q4 -11 4 -43v-302q0 -124 -77 -225q-38 -50 -96.5 -77t-125.5 -27t-125 28t-96 78q-76 100 -76 225v301q0 24 1.5 32t6.5 18q8 14 56 14q29 0 41.5 -4.5t17.5 -17.5q5 -17 5 -43v-300q0 -63 24.5 -112.5t64.5 -70.5q38 -20 82 -20
q50 0 89 25.5t60 72.5t21 106v306q0 32 6 42q10 16 56 16z" />
    <glyph glyph-name="V" unicode="V" horiz-adv-x="753" 
d="M728 658q0 -10 -12 -37l-276 -560q-8 -15 -24.5 -25t-33.5 -10h-10q-18 0 -34.5 9.5t-24.5 25.5l-275 560q-13 25 -13 37q0 18 30 36.5t57 18.5q13 0 21 -8q17 -24 52 -103l16 -35l51 -111l49 -107l10 -20q7 -16 8 -18l16 -36l44 -97l221 494l8 18q6 13 12 18.5t15 5.5
q14 0 48 -14q45 -22 45 -42z" />
    <glyph glyph-name="W" unicode="W" horiz-adv-x="966" 
d="M926 665q0 -5 -11 -41l-194 -560q-17 -38 -58 -38q-17 0 -34 10t-23 23l-140 414q-48 -126 -105 -304q-25 -77 -31 -91q-10 -27 -23 -39.5t-34 -12.5q-19 0 -35 8.5t-22 22.5l-199 567q-10 27 -10 41q0 17 30.5 32.5t64.5 15.5q12 0 19 -10t15 -38l134 -406l133 401
q10 32 37 43q15 5 32 5q19 0 33 -8.5t18 -23.5l139 -419q58 169 102 310q21 70 33 98q9 27 18 38t22 11q17 0 39 -9q50 -17 50 -40z" />
    <glyph glyph-name="X" unicode="X" horiz-adv-x="708" 
d="M641 133q27 -30 27 -47q0 -9 -14.5 -25.5t-33.5 -31.5q-20 -14 -30 -14q-16 0 -43 31l-209 240l-209 -239q-29 -32 -42 -32q-10 0 -29.5 14t-34.5 32q-16 16 -16 25q0 16 28 47l217 238l-217 238q-28 31 -28 46q0 9 14.5 26t35.5 32q20 14 30 14q15 0 42 -31l209 -240
l209 239q29 32 43 32q11 0 29 -13t34 -32q15 -16 15 -27q0 -17 -27 -46l-217 -238z" />
    <glyph glyph-name="Y" unicode="Y" horiz-adv-x="653" 
d="M22.5 678q15.5 16 35.5 29q20 12 31 12q12 0 16 -4q11 -6 29 -33l176 -282l176 282q15 23 23.5 30t21.5 7q8 0 29 -12t37 -27q16 -16 16 -27q0 -14 -19 -39l-220 -329v-199q0 -24 -1.5 -31.5t-6.5 -17.5q-8 -14 -56 -14q-30 0 -39 4q-17 3 -21 18t-4 43v197l-220 329
q-19 25 -19 39q0 9 15.5 25z" />
    <glyph glyph-name="Z" unicode="Z" horiz-adv-x="600" 
d="M14 116l339 469h-279q-32 0 -43 4q-13 4 -18.5 16.5t-5.5 39.5t5 44q4 12 17 17q11 3 42 3h402q17 0 32 -8.5t23 -22.5q8 -19 8 -35q0 -18 -7 -28l-339 -469h298q30 0 41 -4q12 -4 16.5 -16.5t4.5 -37.5q0 -28 -4.5 -41.5t-17.5 -18.5q-15 -5 -42 -5h-416q-16 0 -31 9
q-32 17 -32 57q0 17 7 27z" />
    <glyph glyph-name="bracketleft" unicode="[" horiz-adv-x="290" 
d="M119 -107h99q17 0 22 -3t8 -15q2 -22 2 -30q0 -15 -2 -31q-2 -9 -8.5 -12t-22.5 -3h-154q-26 0 -37.5 4.5t-14.5 16.5q-4 9 -4 41v826q0 32 4 41q4 12 14 15q18 5 39 5h154h9q9 0 13 -3t7 -12q3 -13 3 -33q0 -15 -2 -31q-2 -9 -8.5 -12t-22.5 -3h-98v-761z" />
    <glyph glyph-name="backslash" unicode="\" horiz-adv-x="495" 
d="M17 676q-10 19 -10 31q0 8 14.5 20t35.5 21q19 9 32 9t18 -5l17 -29l27 -57q75 -159 212 -443l77 -159q17 -42 17 -50q0 -6 -7 -10q-11 -11 -38.5 -23t-40.5 -12q-9 0 -15 6t-15 28z" />
    <glyph glyph-name="bracketright" unicode="]" horiz-adv-x="315" 
d="M9 -122q2 9 8.5 12t21.5 3h99v761h-98q-16 0 -22.5 3t-8.5 12q-2 16 -2 32q0 14 2 32q2 9 8.5 12t21.5 3h154q30 0 39 -4q10 -4 15 -16q3 -12 3 -41v-826q0 -32 -4 -41q-4 -13 -13 -16q-18 -5 -39 -5h-154q-16 0 -22.5 3t-8.5 12q-2 16 -2 32q0 14 2 32z" />
    <glyph glyph-name="asciicircum" unicode="^" horiz-adv-x="471" 
d="M202 519h11q8 0 21 -13q7 -6 64 -63q46 -51 109 -110q11 -11 -17 -33q-27 -22 -30 -25q-4 -3 -9 -3q-9 0 -20 14l-6 5l-117 116l-116 -116q-19 -21 -28 -21q-5 0 -12.5 7t-15.5 16l-23 25q-6 8 -6 9q0 2 4 6l41 42q17 18 137 138q8 6 13 6z" />
    <glyph glyph-name="underscore" unicode="_" horiz-adv-x="793" 
d="M43 -203q-18 0 -25 3q-8 2 -9 11q-2 14 -2 30q0 14 2 30q2 8 9 11q8 3 26 3h673q11 0 25 -2q7 -3 9 -11q2 -16 2 -31q0 -16 -2 -30q-1 -9 -9 -11q-7 -3 -26 -3h-673z" />
    <glyph glyph-name="grave" unicode="`" horiz-adv-x="368" 
d="M190 583l-76 23l-80 26q-20 8 -22 10q-5 5 -5 10q0 19 12.5 47.5t21.5 28.5q7 0 165 -50q30 -8 37 -12q10 -4 10 -8q0 -16 -11 -49.5t-18 -33.5q-5 0 -34 8z" />
    <glyph glyph-name="a" unicode="a" 
d="M463 510q16 1 28 -9.5t12 -27.5v-385q0 -23 -1.5 -30.5t-6.5 -17.5q-3 -6 -19 -10q-13 -4 -43 -4q-59 0 -59 42l1 10q-34 -51 -137 -51q-53 0 -102.5 33.5t-79.5 88.5q-31 55 -31 115q0 59 30.5 114t80.5 89q49 34 102 34q42 0 81 -18.5t59 -48.5v37q0 14 9 23.5t23 11.5
zM165.5 209q15.5 -26 41.5 -42q25 -16 57 -16q45 0 78 33t33 79q0 47 -33 80t-79 33q-47 0 -80 -33t-33 -80q0 -28 15.5 -54z" />
    <glyph glyph-name="b" unicode="b" 
d="M473 149q-30 -55 -80 -88q-49 -34 -103 -34q-102 0 -137 51q3 -27 -11 -39.5t-47 -12.5q-29 0 -42 4q-13 3 -18 9t-8 19q-2 14 -2 30v597q0 33 4 42q3 12 15 17q9 4 43 4q32 0 43 -4q12 -4 16 -16q4 -9 4 -42v-252q20 30 59 48.5t81 18.5q53 0 102.5 -33.5t80.5 -88.5
q30 -55 30 -115t-30 -115zM345 343q-33 33 -80 33q-46 0 -79 -33t-33 -80q0 -46 33 -79t78 -33q30 0 56.5 15.5t42.5 42.5q15 26 15 54q0 47 -33 80z" />
    <glyph glyph-name="c" unicode="c" horiz-adv-x="467" 
d="M47 369q22 47 62 78q76 61 161 61q28 0 61 -8t53 -20l15 -9q31 -17 38 -27q5 -8 5 -16q0 -14 -11.5 -35.5t-26.5 -36.5q-16 -16 -27 -16q-13 0 -39 17q-25 22 -66 22q-49 0 -83 -33.5t-34 -81.5t33 -81.5t80 -33.5q38 0 73 23q20 14 30 14q9 0 26.5 -15t31.5 -35
q13 -19 13 -30q0 -24 -44 -50q-50 -36 -126 -36q-84 0 -164 62q-39 31 -61 79.5t-22 104.5t22 103z" />
    <glyph glyph-name="d" unicode="d" 
d="M55.5 378q30.5 55 80.5 89q49 34 102 34q42 0 81 -18.5t59 -48.5v252q0 31 4 42q4 12 17 16q9 4 42 4t44 -4q12 -5 15 -17t3 -42v-597q0 -23 -1.5 -30.5t-6.5 -17.5q-3 -6 -19 -10q-13 -4 -43 -4q-59 0 -59 42l1 10q-34 -51 -137 -51q-53 0 -102.5 33.5t-79.5 88.5
q-31 55 -31 115q0 59 30.5 114zM165 209q15 -26 42 -42q25 -16 57 -16q45 0 78 33t33 79q0 47 -33 80t-79 33q-47 0 -80 -33t-33 -80q0 -28 15 -54z" />
    <glyph glyph-name="e" unicode="e" horiz-adv-x="523" 
d="M478 257q-20 -26 -53 -26h-257q-11 -11 -11 -24q0 -20 20 -41.5t51 -35.5q30 -15 59 -15q63 0 100 14l11 4q23 9 31 9q13 0 28 -23t15 -43q0 -30 -47 -47q-49 -17 -141 -17q-65 0 -118 22t-83 61q-58 76 -58 166q0 74 32.5 131.5t92.5 89.5q58 31 135 31q128 0 183 -87
q30 -44 30 -99q0 -44 -20 -70zM332 306q19 0 32 12t13 32q0 38 -21.5 54.5t-69.5 16.5q-49 0 -76 -17t-27 -49q0 -23 14 -36t39 -13h96z" />
    <glyph glyph-name="f" unicode="f" horiz-adv-x="420" 
d="M33 482q8 13 26 13h58v78q0 51 24 91.5t67 63.5q43 22 98 22q24 0 31.5 -1.5t17.5 -6.5h1q6 -4 10 -17q3 -15 3 -38q0 -35 -8 -47.5t-29 -14.5h-27q-29 0 -45.5 -13t-16.5 -37v-82l91 5q29 0 40 -4q13 -4 16 -13q5 -22 5 -43q0 -27 -6 -40t-19 -16q-11 -4 -37 -4l-90 3
v-295q0 -32 -4 -41q-4 -13 -16 -16q-22 -5 -44 -5q-29 0 -41.5 5.5t-16.5 18.5q-4 11 -4 40v290h-60q-17 2 -20 5q-12 11 -12 55q0 31 8 44z" />
    <glyph glyph-name="g" unicode="g" horiz-adv-x="520" 
d="M54.5 382q29.5 54 78.5 87q48 33 100 33q50 0 84 -16.5t58 -54.5l-1 24q0 28 10.5 38.5t42.5 10.5q38 0 51 -5.5t16 -25.5q1 -2 1 -30v-414q0 -63 -31.5 -116t-85.5 -84q-52 -31 -118 -31q-33 0 -78 14t-79 33q-32 20 -32 32q0 29 23 52l23 23q8 6 13 6q7 0 14 -7
q54 -42 119 -42q47 0 79 36.5t32 90.5v30l-1 31q-54 -55 -129 -55q-55 0 -105.5 30.5t-81.5 83.5q-32 53 -32 115q0 57 29.5 111zM179.5 194q33.5 -33 79.5 -33q44 0 76.5 33t32.5 77q0 46 -32 78.5t-78 32.5t-79 -32.5t-33 -78.5q0 -44 33.5 -77z" />
    <glyph glyph-name="h" unicode="h" horiz-adv-x="525" 
d="M25 686q0 22 1.5 30t6.5 19h-1q4 6 18 10q13 3 38 3q24 0 37 -3q13 -4 17 -10v-1q5 -10 6.5 -17.5t1.5 -31.5v-226q21 18 62.5 29.5t79.5 11.5q57 0 105 -31t76 -85q27 -54 27 -121v-176q0 -29 -4 -40q-4 -13 -16 -17q-17 -5 -43 -5q-28 0 -42 6q-11 4 -16 17
q-4 11 -4 41v175q0 50 -29.5 81t-76.5 31q-44 0 -79.5 -27.5t-39.5 -65.5v-196q0 -29 -4 -40q-4 -13 -16 -17q-17 -5 -43 -5q-27 0 -42 5q-11 4 -16 17q-4 11 -4 41v598z" />
    <glyph glyph-name="i" unicode="i" horiz-adv-x="175" 
d="M25 439q0 30 4.5 42t16.5 16q9 4 42 4q36 0 48.5 -8t12.5 -29q1 -2 1 -27v-350q0 -32 -4 -41q-4 -12 -16 -16q-17 -5 -43 -5t-43 5q-13 4 -16 17q-3 12 -3 41v351zM46 627q-13 4 -17 17q-4 9 -4 42q0 30 4.5 42t16.5 16q9 4 42 4q25 0 42 -5q11 -4 16 -17q4 -11 4 -41
q0 -33 -4 -42q-4 -12 -16 -16q-9 -4 -42 -4t-42 4z" />
    <glyph glyph-name="j" unicode="j" horiz-adv-x="192" 
d="M-125 -102q5 13 15.5 18t34.5 5q55 0 86 31t31 86v412q0 25 4.5 35.5t16.5 14.5q18 5 41 5q46 0 53 -12l6 -17q1 -3 1 -33v-412q0 -63 -31 -116.5t-85 -84.5q-52 -31 -118 -31q-23 0 -30 1t-16 6q-6 2 -10 15q-4 11 -4 36q0 24 5 41zM46.5 728q4.5 12 16.5 16q9 4 42 4
q25 0 42 -5q11 -4 16 -17q4 -11 4 -41q0 -33 -4 -42q-4 -12 -16 -16q-9 -4 -42 -4t-42 4q-13 4 -17 17q-4 9 -4 42q0 30 4.5 42z" />
    <glyph glyph-name="k" unicode="k" horiz-adv-x="481" 
d="M271 264l156 -129q29 -24 29 -34t-13 -30t-29 -36t-24 -16q-12 0 -29 11l-51 44l-19 17l-123 108q-4 3 -9 3q-9 0 -9 -9v-106q0 -32 -4 -41q-4 -12 -16 -16q-17 -5 -43 -5t-43 5q-13 4 -16 17q-3 12 -3 41v599q0 24 1 31t6 18q2 6 17 10q11 4 39 4q35 0 48 -8.5t13 -30.5
q1 -1 1 -25v-317l2 -59q29 23 64 55l92 79q47 38 51 38q8 0 23 -15.5t27 -35.5q12 -19 12 -29q0 -11 -28 -35z" />
    <glyph glyph-name="l" unicode="l" horiz-adv-x="272" 
d="M25 687q0 31 4 42q4 12 17 17q9 4 42 4q25 0 42 -5q11 -4 16 -17q4 -11 4 -42v-463q0 -45 12.5 -62.5t45.5 -17.5h20q11 -3 15 -17.5t4 -38.5q0 -21 -2 -39q-3 -12 -12.5 -16.5t-33.5 -4.5l-68 2q-43 1 -65.5 18t-31.5 55t-9 109v476z" />
    <glyph glyph-name="m" unicode="m" horiz-adv-x="771" 
d="M25 440q0 23 1.5 30.5t6.5 17.5q9 14 49 14q31 0 45.5 -14.5t17.5 -44.5q11 28 47 42t85 14q37 0 60.5 -9.5t47.5 -33.5q22 -21 37 -58q4 26 28.5 50.5t62.5 40.5q39 14 70 14q79 0 121 -61.5t42 -178.5v-175q0 -30 -4 -41q-4 -12 -17 -17q-17 -5 -42 -5q-27 0 -42 5
q-12 4 -16 16t-4 43v175q0 53 -22.5 82.5t-64.5 29.5q-71 0 -82 -77l-3 -211l1 -27q0 -23 -12 -29.5t-43 -6.5q-28 0 -41 5q-12 5 -14 16t-3 43l-4 175q-1 60 -21.5 86t-65.5 26q-42 0 -68.5 -30.5t-26.5 -81.5v-177q0 -29 -4 -40q-4 -12 -17 -17q-17 -5 -43 -5t-43 5
q-13 4 -16 17q-3 12 -3 41v352z" />
    <glyph glyph-name="n" unicode="n" horiz-adv-x="474" 
d="M25 440q0 23 1.5 30.5t6.5 17.5q9 14 49 14q31 0 45.5 -14.5t17.5 -44.5q11 28 47 42t85 14q51 0 91 -25t61 -69q20 -45 20 -88v-229q0 -39 -1 -44q-2 -10 -13 -14q-13 -5 -40 -5q-28 0 -41 5q-12 5 -14 16t-3 43l-4 175q-1 60 -21.5 86t-65.5 26q-42 0 -68.5 -30.5
t-26.5 -81.5v-177q0 -29 -4 -40q-4 -12 -17 -17q-17 -5 -43 -5t-43 5q-13 4 -16 17q-3 12 -3 41v352z" />
    <glyph glyph-name="o" unicode="o" horiz-adv-x="540" 
d="M54 389q34 58 92 92q57 33 125 33t125 -33t91 -91q33 -58 33 -126q0 -70 -36 -130t-97 -90q-55 -28 -117 -28q-63 0 -118.5 31t-92.5 87q-39 57 -39 129q0 68 34 126zM184 166l-1 1q39 -33 86 -33q35 0 65.5 18t48.5 48t18 66q0 56 -37.5 93t-93.5 37q-55 0 -93 -37.5
t-38 -93.5q0 -64 45 -99z" />
    <glyph glyph-name="p" unicode="p" 
d="M473 148q-30 -55 -80 -89q-49 -34 -103 -34q-42 0 -81 18.5t-59 48.5v-252q0 -33 -4 -42q-4 -12 -16 -16q-11 -4 -43 -4q-28 0 -43 5q-12 4 -15 16q-4 9 -4 42v597q0 23 1.5 30.5t6.5 17.5q4 6 20 10q13 4 42 4q59 0 59 -42l-1 -10q35 51 137 51q53 0 102.5 -33.5
t80.5 -88.5q30 -55 30 -115q0 -59 -30 -114zM362.5 317q-15.5 26 -41.5 42q-25 16 -57 16q-45 0 -78 -33t-33 -79q0 -47 33 -80t79 -33q47 0 80 33t33 80q0 28 -15.5 54z" />
    <glyph glyph-name="q" unicode="q" horiz-adv-x="545" 
d="M37.5 376.5q30.5 55.5 80.5 89.5q49 33 102 33q103 0 137 -51q-3 27 11 39.5t47 12.5q30 0 43 -4q14 -3 18.5 -8.5t7.5 -18.5q1 -3 1 -31v-597q0 -30 -3 -42q-4 -12 -16 -16q-15 -5 -43 -5q-33 0 -42 4q-13 4 -17 16q-4 9 -4 42v252q-20 -30 -59 -48.5t-81 -18.5
q-53 0 -102.5 34t-79.5 89q-31 52 -31 114q0 59 30.5 114.5zM165 183q33 -33 80 -33q46 0 79 33t33 80q0 46 -33 79t-78 33q-30 0 -56.5 -15.5t-41.5 -42.5q-16 -25 -16 -54q0 -47 33 -80z" />
    <glyph glyph-name="r" unicode="r" horiz-adv-x="402" 
d="M25 89v351q0 30 4.5 42t16.5 16q9 4 42 4q34 0 47 -8t13 -31q9 20 45.5 32t84.5 12q45 0 72 -10q15 -5 21 -14.5t6 -28.5q0 -31 -15.5 -57t-33.5 -26q-11 0 -24 6q-20 10 -54 10q-39 0 -69 -27t-30 -63v-210q0 -24 -1.5 -31.5t-6.5 -17.5v1q-4 -6 -18 -10q-12 -4 -38 -4
q-35 0 -47.5 7.5t-14.5 28.5v28z" />
    <glyph glyph-name="s" unicode="s" horiz-adv-x="429" 
d="M28.5 114q8.5 19 19.5 31t20 12q10 0 33 -17q29 -18 52 -25.5t58 -7.5q86 0 86 49q0 21 -20 32t-68 21q-82 16 -126.5 60t-44.5 110q0 68 47 100.5t145 32.5q62 0 135 -32q21 -9 21 -17q0 -17 -16.5 -43t-25.5 -26q-8 0 -34 13q-42 17 -81 17q-84 0 -84 -47
q0 -24 22 -39.5t68 -24.5q91 -16 132.5 -50.5t41.5 -97.5q0 -44 -15.5 -75t-44.5 -46q-55 -28 -149 -28q-91 0 -173 52q-7 4 -7 17q0 10 8.5 29z" />
    <glyph glyph-name="t" unicode="t" horiz-adv-x="419" 
d="M29 480q4 11 10 15.5t19 4.5l59 -3v127q0 17 2 31q3 11 7 16t16 8q13 3 38 3q58 0 59 -28l2 -35v-126q43 7 92 7q23 0 30.5 -1.5t17.5 -6.5q6 -4 10 -17q3 -15 3 -38t-3 -37q-3 -12 -9 -16t-20 -7q-14 -2 -30 -2l-91 6v-165q0 -76 66 -76q29 0 33 -1q8 -1 16 -6
q11 -8 11 -46q0 -24 -3 -38q-3 -12 -9 -15.5t-21 -6.5q-16 -2 -30 -2q-100 0 -143.5 42.5t-43.5 138.5v179q-31 -9 -66 -9q-26 0 -26 50q0 35 4 54z" />
    <glyph glyph-name="u" unicode="u" horiz-adv-x="474" 
d="M25 439q0 26 2 44q2 11 12 15q8 4 40 4q27 0 42 -5q11 -5 13 -16t3 -43l4 -175q1 -60 21.5 -86t65.5 -26q42 0 68.5 30.5t26.5 81.5v177q0 27 5 42q4 12 16 16q11 4 43 4q26 0 43 -5q13 -4 16 -17q3 -12 3 -41v-352q0 -23 -1.5 -30.5t-6.5 -17.5q-9 -14 -49 -14
q-29 0 -41 4q-13 3 -18.5 12t-5.5 28l1 28l2 29v7q-5 -52 -46.5 -78t-104.5 -26q-45 0 -80.5 25.5t-54.5 70.5q-19 39 -19 85v229z" />
    <glyph glyph-name="v" unicode="v" horiz-adv-x="608" 
d="M583 449q0 -13 -17 -42l-207 -356q-7 -12 -23 -21.5t-30 -9.5q-12 0 -25.5 5.5t-21.5 13.5l-10 13l-207 355q-17 29 -17 41q0 11 15 26t37 27q20 11 35 11q11 0 18 -7t21 -34l153 -294l153 294q2 5 8.5 15.5t9.5 13.5q8 11 26 11q13 0 42 -17q40 -24 40 -45z" />
    <glyph glyph-name="w" unicode="w" horiz-adv-x="763" 
d="M53 491q28 17 56 17q26 0 32 -21q31 -80 97 -258l85 234q7 16 23.5 28t31.5 12q19 0 37 -10t22 -24l88 -240l85 231q10 25 21.5 36.5t27.5 11.5q25 0 52 -18t27 -36q0 -8 -14 -44q-15 -32 -27 -67l-117 -283q-9 -21 -22.5 -29.5t-35.5 -8.5q-18 0 -29 11t-29 44
q-27 67 -80 213q-61 -149 -87 -223q-6 -18 -22.5 -31.5t-33.5 -13.5q-18 0 -34.5 10.5t-22.5 26.5l-151 368q-8 27 -8 30q0 17 28 34z" />
    <glyph glyph-name="x" unicode="x" horiz-adv-x="537" 
d="M355 264l128 -130q29 -29 29 -43q0 -9 -13.5 -26t-31.5 -32q-20 -14 -27 -14q-14 0 -43 29l-128 128l-129 -128q-29 -29 -42 -29q-9 0 -27 14t-32 32q-14 17 -14 26q0 14 29 43l128 130l-128 130q-29 29 -29 44q0 9 14 26.5t32 31.5q20 14 27 14q13 0 42 -29l129 -130
l128 130q29 29 43 29q9 0 26 -13.5t32 -31.5q14 -20 14 -27q0 -15 -29 -44z" />
    <glyph glyph-name="y" unicode="y" horiz-adv-x="574" 
d="M549 458q0 -10 -6 -24q-37 -79 -165 -368l-105 -235q-9 -24 -16.5 -33t-21.5 -9q-15 0 -36 9t-36 22q-15 12 -15 21q0 19 99 230l-205 347q-17 29 -17 36q0 9 14 22.5t36 25.5q20 11 32 11q25 0 34 -22l16 -28l32 -55q37 -64 75 -126l44 -68l63 139l50 109q12 28 22 41
q6 7 17 7q18 0 45 -12q44 -18 44 -40z" />
    <glyph glyph-name="z" unicode="z" horiz-adv-x="536" 
d="M449 151q24 0 41 -5q12 -5 16 -16q5 -22 5 -43q0 -47 -13 -54q-11 -5 -19.5 -6.5t-30.5 -1.5h-361q-25 0 -43.5 19t-18.5 44q0 18 9 31q6 10 37 40l18 16l94 84l133 118h-205q-24 0 -41 5q-13 5 -18 15.5t-5 31.5q0 32 4 47q4 11 6.5 15t9.5 7q11 4 44 4h325q26 0 44 -18
t18 -44q0 -27 -22 -49l-119 -109l-144 -131h236z" />
    <glyph glyph-name="braceleft" unicode="{" horiz-adv-x="348" 
d="M122 -28l1 93v50q0 37 -5 59t-19 33q-22 19 -63 19h-6q-14 0 -18 10q-5 12 -5 37q0 17 3 30q2 11 5.5 14t13.5 3h4q42 0 65 19.5t23 54.5l1 204q0 66 39 108t99 42q22 0 31 -2t13 -11.5t4 -32.5q0 -24 -4 -33t-13.5 -12t-29.5 -3q-21 0 -33 -17t-12 -47v-170
q0 -47 -14 -76t-54 -71q30 -29 44 -52t19 -50q5 -35 5 -75q-1 -24 -1 -129v-24q0 -23 14 -37t37 -14q20 0 28.5 -3t11.5 -12q2 -18 2 -31q0 -22 -3.5 -31.5t-12.5 -12.5t-31 -3q-60 0 -99.5 43.5t-39.5 110.5v19z" />
    <glyph glyph-name="bar" unicode="|" horiz-adv-x="159" 
d="M7 687q0 25 2 43q2 11 11 14q11 4 31 4q21 0 29.5 -4.5t11.5 -16.5q2 -22 2 -41v-832q0 -20 1 -29q0 -20 -9 -26t-35 -6q-22 0 -31 4.5t-11 16.5q-2 22 -2 42v831z" />
    <glyph glyph-name="braceright" unicode="}" horiz-adv-x="348" 
d="M193 -47q0 -67 -39.5 -110.5t-99.5 -43.5q-22 0 -31 3t-12 13q-4 7 -4 31q0 20 3 31q1 9 11 12q8 3 28 3q23 0 37 14t14 37v24q0 105 -1 129q0 49 5 75.5t19 49.5q12 22 44 52q-40 42 -54 71t-14 76v170q0 30 -12 47t-33 17q-20 0 -29 3t-13 12q-5 12 -5 33q0 24 4 33
t12.5 11t31.5 2q60 0 99 -42t39 -108l1 -204q0 -35 23 -54.5t65 -19.5h4q10 0 13.5 -2.5t6.5 -14.5q2 -24 2 -30q0 -30 -4 -37q-4 -10 -19 -10h-6q-40 0 -62.5 -19t-22.5 -53l-2 -89l1 -93v-19z" />
    </font>
</defs>
</svg>
